<?xml version="1.0" encoding="UTF-8" standalone="no"?>
<!-- Created with Inkscape (http://www.inkscape.org/) -->

<svg
   width="690.53833mm"
   height="114.37544mm"
   viewBox="0 0 690.53834 114.37544"
   version="1.1"
   id="svg5"
   inkscape:version="1.2.2 (b0a8486541, 2022-12-01)"
   sodipodi:docname="company_logo.svg"
   inkscape:export-filename="company_logo (transparent).png"
   inkscape:export-xdpi="30"
   inkscape:export-ydpi="30"
   xmlns:inkscape="http://www.inkscape.org/namespaces/inkscape"
   xmlns:sodipodi="http://sodipodi.sourceforge.net/DTD/sodipodi-0.dtd"
   xmlns="http://www.w3.org/2000/svg"
   xmlns:svg="http://www.w3.org/2000/svg">
  <sodipodi:namedview
     id="namedview7"
     pagecolor="#000000"
     bordercolor="#666666"
     borderopacity="1.0"
     inkscape:pageshadow="2"
     inkscape:pageopacity="1"
     inkscape:pagecheckerboard="true"
     inkscape:document-units="mm"
     showgrid="false"
     inkscape:snap-to-guides="true"
     inkscape:snap-grids="false"
     units="mm"
     inkscape:zoom="0.2379475"
     inkscape:cx="1615.9027"
     inkscape:cy="31.519558"
     inkscape:window-width="1920"
     inkscape:window-height="1052"
     inkscape:window-x="0"
     inkscape:window-y="28"
     inkscape:window-maximized="1"
     inkscape:current-layer="layer1"
     inkscape:showpageshadow="2"
     inkscape:deskcolor="#d1d1d1" />
  <defs
     id="defs2">
    <rect
       x="252.84261"
       y="234.83948"
       width="628.41785"
       height="211.73701"
       id="rect5891" />
    <rect
       x="128.17609"
       y="131.26305"
       width="472.3219"
       height="169.90837"
       id="rect3003" />
  </defs>
  <g
     inkscape:label="Layer 1"
     inkscape:groupmode="layer"
     id="layer1"
     transform="translate(-290.48762,-230.05876)">
    <g
       transform="scale(0.26458333)"
       id="text3001"
       style="font-size:40px;line-height:1.25;white-space:pre;shape-inside:url(#rect3003);display:inline" />
    <g
       transform="scale(0.26458333)"
       id="text5889"
       style="font-size:40px;line-height:1.25;white-space:pre;shape-inside:url(#rect5891);display:inline" />
    <g
       aria-label="Stimuler"
       id="text8405"
       style="font-size:107.418px;line-height:1.25;font-family:'M Ying Hei PRC W48 W7';-inkscape-font-specification:'M Ying Hei PRC W48 W7, Normal';fill:#ffffff;stroke-width:0.559467"
       transform="matrix(1.2360501,0,0,1.2360501,-84.866147,-98.758239)">
      <path
         d="m 470.79881,351.93652 q -7.08959,0 -13.105,-1.82611 -6.01541,-1.8261 -10.41954,-5.26348 -4.29672,-3.54479 -6.76734,-8.48602 -2.36319,-4.94123 -2.36319,-11.17147 v -0.53709 h 16.32753 q 0,6.76733 4.51156,10.52696 4.61897,3.65221 12.35307,3.65221 6.76733,0 10.84922,-2.36319 4.1893,-2.3632 4.1893,-7.19701 0,-3.11512 -2.25578,-5.26348 -2.25578,-2.14836 -6.01541,-3.5448 -1.8261,-0.6445 -5.04864,-1.39643 -3.11513,-0.85934 -7.62668,-1.93352 -5.15607,-1.28902 -8.80828,-2.57804 -3.65221,-1.39643 -6.23024,-2.90028 -2.57803,-1.50385 -4.29672,-3.22254 -1.61127,-1.82611 -2.90029,-3.86705 -2.47061,-4.08188 -2.47061,-9.88246 0,-7.197 4.08188,-12.5679 4.08189,-5.3709 10.84922,-7.94893 6.65992,-2.57803 13.7495,-2.57803 7.08959,0 12.67533,1.71868 5.69315,1.61127 9.66762,4.7264 4.08188,3.11512 6.23024,7.73409 2.14836,4.61898 2.14836,10.52696 h -16.32753 q -0.32226,-5.80057 -3.97447,-8.70085 -3.54479,-2.90029 -11.06405,-2.90029 -5.26349,0 -8.48603,2.3632 -3.22254,2.25578 -3.22254,6.33766 0,3.32996 1.93353,4.83381 2.04094,1.50385 5.69315,2.68545 1.82611,0.53709 4.94123,1.39643 3.22254,0.85935 7.84151,2.04094 4.83381,1.1816 8.37861,2.47062 3.65221,1.1816 6.33766,2.68545 2.68545,1.39643 4.61897,3.22254 1.93353,1.71869 3.22254,3.86705 2.68545,4.29672 2.68545,10.7418 0,7.41184 -3.86704,12.99757 -3.86705,5.58574 -11.27889,8.59344 -3.75963,1.50386 -7.94894,2.25578 -4.08188,0.75193 -8.80827,0.75193 z"
         id="path1170"
         style="fill:#ffffff" />
      <path
         d="m 532.13454,350.75492 q -8.80828,0 -13.105,-3.0077 -4.29672,-3.00771 -4.29672,-10.41955 v -32.54765 h -9.23795 v -10.20471 h 9.23795 v -16.64979 h 15.25336 v 16.64979 h 11.17147 v 10.20471 h -11.17147 v 27.499 q 0,3.86705 1.28901,5.15607 1.28902,1.28901 5.15607,1.28901 3.0077,0 4.72639,-0.42967 v 11.9234 q -1.61127,0.21484 -3.86705,0.32225 -2.25578,0.21484 -5.15606,0.21484 z"
         id="path1172"
         style="fill:#ffffff" />
      <path
         d="m 564.14502,273.41396 v 12.56791 h -15.25335 v -12.56791 z m 0,21.16135 v 55.5351 h -15.25335 v -55.5351 z"
         id="path1174"
         style="fill:#ffffff" />
      <path
         d="m 590.99945,294.57531 v 7.51926 h 0.21484 q 6.33766,-9.02312 16.97204,-9.02312 12.13824,0 16.22012,9.23795 6.33766,-9.23795 16.86463,-9.23795 10.41954,0 15.25335,5.26349 4.94123,5.15606 4.94123,14.50143 v 37.27404 h -15.25335 v -32.11798 q 0,-7.30442 -2.25578,-10.09729 -2.14836,-2.79287 -7.08959,-2.79287 -10.20471,0 -10.20471,13.96434 v 31.0438 h -15.25336 v -32.76249 q 0,-7.08959 -2.25577,-9.66762 -2.14836,-2.57803 -6.98217,-2.57803 -4.51156,0 -7.41185,3.43738 -2.90028,3.43737 -2.90028,9.23794 v 32.33282 h -15.25336 v -55.5351 z"
         id="path1176"
         style="fill:#ffffff" />
      <path
         d="m 693.69108,351.61426 q -10.84922,0 -15.57561,-5.47831 -4.61898,-5.58574 -4.61898,-17.07947 v -34.48117 h 15.25336 v 31.47347 q 0,6.44508 2.04094,9.98987 2.04094,3.5448 7.7341,3.5448 6.44508,0 9.13053,-3.65221 2.68545,-3.75963 2.68545,-12.13824 v -29.21769 h 15.25335 v 55.5351 h -14.50143 v -7.73409 h -0.32225 q -5.69315,9.23794 -17.07946,9.23794 z"
         id="path1178"
         style="fill:#ffffff" />
      <path
         d="m 752.87844,273.41396 v 76.69645 h -15.25336 v -76.69645 z"
         id="path1180"
         style="fill:#ffffff" />
      <path
         d="m 790.58209,351.61426 q -7.7341,0 -14.17918,-3.22254 -6.44508,-3.32995 -10.31213,-10.20471 -3.86705,-6.76733 -3.86705,-15.79044 0,-4.1893 0.96677,-8.05635 1.07418,-3.97447 2.90028,-7.30443 1.93353,-3.43737 4.61898,-6.12282 2.68545,-2.68545 5.90799,-4.40414 6.55249,-3.43738 13.96434,-3.43738 7.84151,0 13.96434,3.65222 6.23024,3.54479 9.66762,10.52696 3.43737,6.76733 3.43737,16.00528 0,0.42967 0,1.1816 0,0.64451 -0.10742,1.61127 h -40.06691 q 0.21484,6.76733 3.43738,10.41955 3.32995,3.65221 10.09729,3.65221 4.1893,0 7.62668,-2.04094 3.54479,-2.14836 4.51155,-5.15607 h 13.42725 q -6.01541,18.79815 -25.99515,18.69073 z m 11.70856,-35.2331 q -1.07418,-6.23024 -3.97447,-9.02311 -2.79287,-2.79287 -8.27118,-2.79287 -5.58574,0 -8.80828,3.22254 -3.22254,3.11512 -3.75963,8.59344 z"
         id="path1182"
         style="fill:#ffffff" />
      <path
         d="m 841.06851,294.57531 v 10.31212 h 0.21484 q 2.25578,-5.47831 7.08959,-8.59344 4.83381,-3.22254 10.63438,-3.22254 1.71869,0 3.32996,0.53709 v 14.17918 q -2.68545,-0.53709 -5.47832,-0.53709 -15.03852,0 -15.03852,17.83139 v 25.02839 h -15.25336 v -55.5351 z"
         id="path1184"
         style="fill:#ffffff" />
    </g>
    <path
       d="m 290.48762,287.30482 c 0,29.74929 22.67667,54.17659 51.66736,56.96597 v -31.60494 c -2.10077,0 -3.81642,-1.71564 -3.81642,-3.81641 v -7.25936 l -21.31116,10.41049 -6.29067,-9.3951 37.62719,-32.0018 12.96644,19.74727 -7.73784,3.7814 v 14.7171 c 0,2.10077 -1.71562,3.81641 -3.81641,3.81641 v 31.76835 c 30.60127,-1.12041 55.08695,-26.23633 55.08695,-57.12938 0,-31.61663 -25.60609,-57.24606 -57.18772,-57.24606 -31.58162,0 -57.18772,25.62943 -57.18772,57.24606 z m 62.45132,-20.891 c 1.13209,-3.15118 3.23286,-5.98721 6.25564,-7.97129 7.37605,-4.86679 17.29637,-2.81268 22.15149,4.57504 4.85511,7.3877 2.8127,17.30802 -4.57502,22.17482 -3.0111,1.98406 -6.44238,2.78933 -9.79194,2.57928 z"
       id="path28265"
       style="fill:#ffffff;stroke-width:0.116709" />
  </g>
</svg>
